<?xml-stylesheet type="text/css" href="../css/fsk.css" ?><svg xmlns="http://www.w3.org/2000/svg" viewBox="0 0 1200 300" onload="init()"><script><![CDATA[var text, textSpec, textSel, textFile, textLine;function init(){textSpec = document.getElementById("textSpec");textSel = document.getElementById("textSel");textFile = document.getElementById("textFile");textLine = document.getElementById("textLine");}function changeText(spec,sel,line,from){textSpec.textContent = spec;textSel.textContent = sel;textFile.textContent = from;textLine.textContent = line};function restoreText(){textSpec.textContent = "00"};]]></script><style>.fsk-svg-node{display:none; stroke:#555;stroke-width:1px;fill:#992053;cursor:pointer;}.fsk-svg-path{fill:none;stroke:#555;stroke-width:2px;} .fsk-svg-group { position: relative; } .fsk-svg-group:hover .fsk-svg-node {display:block;} .fsk-svg-group:hover .fsk-svg-dotted {display: block;}</style><path style="stroke:#000;" d="M0,297 L1200,297"></path><path style="stroke:#999;" d="M0,247 L1200,247"></path><path style="stroke:#999;" d="M0,197 L1200,197"></path><path style="stroke:#999;" d="M0,147 L1200,147"></path><path style="stroke:#999;" d="M0,97 L1200,97"></path><path style="stroke:#999;" d="M0,47 L1200,47"></path><path id="svgPath" class="fsk-svg-path" d="M5,286 L15,286 L25,286 L35,286 L45,286 L55,286 L65,286 L75,286 L85,286 L95,286 L105,277 L115,296 L125,296 L135,286 L145,286 L155,286 L165,286 L175,296 L185,276 L195,286 L205,286 L215,286 L225,286 L235,286 L245,286 L255,286 L265,286 L275,286 L285,286 L295,285 L305,285 L315,286 L325,286 L335,286 L345,286 L355,286 L365,296 L375,286 L385,296 L395,286 L405,286 L415,286 L425,286 L435,286 L445,286 L455,286 L465,286 L475,286 L485,286 L495,286 L505,275 L515,276 L525,276 L535,276 L545,276 L555,276 L565,276 L575,276 L585,275 L595,275 L605,285 L615,285 L625,286 L635,287 L645,286 L655,286 L665,296 L675,296 L685,296 L695,277 L705,276 L715,276 L725,286 L735,286 L745,286 L755,286 L765,286 L775,286 L785,286 L795,286 L805,277 L815,286 L825,277 L835,286 L845,277 L855,286 L865,277 L875,286 L885,277 L895,286 L905,277 L915,286 L925,286 L935,276 L945,276 L955,277 L965,277 L975,277 L985,267 L995,257 L1005,247 L1015,277 L1025,257 L1035,267 L1045,267 L1055,276 L1065,267 L1075,277 L1085,277 L1095,267 L1105,277 L1115,84 L1125,287 L1135,286 L1145,286 L1155,286 L1165,287 L1175,287 L1185,287"></path><g class="fsk-svg-group"><rect x="0" y="0" width="10" height="100%"  style="cursor: pointer; fill: rgba(255, 0 ,0,0);" onmouseover="changeText(11, 'aside.ui', 136, 'styles.css')" /><circle class="fsk-svg-node" cx="5" cy="286" r="3"/></g><g class="fsk-svg-group"><rect x="10" y="0" width="10" height="100%"  style="cursor: pointer; fill: rgba(255, 0 ,0,0);" onmouseover="changeText(11, 'details.ui', 136, 'styles.css')" /><circle class="fsk-svg-node" cx="15" cy="286" r="3"/></g><g class="fsk-svg-group"><rect x="20" y="0" width="10" height="100%"  style="cursor: pointer; fill: rgba(255, 0 ,0,0);" onmouseover="changeText(11, 'figcaption.ui', 136, 'styles.css')" /><circle class="fsk-svg-node" cx="25" cy="286" r="3"/></g><g class="fsk-svg-group"><rect x="30" y="0" width="10" height="100%"  style="cursor: pointer; fill: rgba(255, 0 ,0,0);" onmouseover="changeText(11, 'figure.ui', 136, 'styles.css')" /><circle class="fsk-svg-node" cx="35" cy="286" r="3"/></g><g class="fsk-svg-group"><rect x="40" y="0" width="10" height="100%"  style="cursor: pointer; fill: rgba(255, 0 ,0,0);" onmouseover="changeText(11, 'footer.ui', 136, 'styles.css')" /><circle class="fsk-svg-node" cx="45" cy="286" r="3"/></g><g class="fsk-svg-group"><rect x="50" y="0" width="10" height="100%"  style="cursor: pointer; fill: rgba(255, 0 ,0,0);" onmouseover="changeText(11, 'header.ui', 136, 'styles.css')" /><circle class="fsk-svg-node" cx="55" cy="286" r="3"/></g><g class="fsk-svg-group"><rect x="60" y="0" width="10" height="100%"  style="cursor: pointer; fill: rgba(255, 0 ,0,0);" onmouseover="changeText(11, 'hgroup.ui', 136, 'styles.css')" /><circle class="fsk-svg-node" cx="65" cy="286" r="3"/></g><g class="fsk-svg-group"><rect x="70" y="0" width="10" height="100%"  style="cursor: pointer; fill: rgba(255, 0 ,0,0);" onmouseover="changeText(11, 'nav.ui', 136, 'styles.css')" /><circle class="fsk-svg-node" cx="75" cy="286" r="3"/></g><g class="fsk-svg-group"><rect x="80" y="0" width="10" height="100%"  style="cursor: pointer; fill: rgba(255, 0 ,0,0);" onmouseover="changeText(11, 'section.ui', 136, 'styles.css')" /><circle class="fsk-svg-node" cx="85" cy="286" r="3"/></g><g class="fsk-svg-group"><rect x="90" y="0" width="10" height="100%"  style="cursor: pointer; fill: rgba(255, 0 ,0,0);" onmouseover="changeText(11, 'summary.ui', 136, 'styles.css')" /><circle class="fsk-svg-node" cx="95" cy="286" r="3"/></g><g class="fsk-svg-group"><rect x="100" y="0" width="10" height="100%"  style="cursor: pointer; fill: rgba(255, 0 ,0,0);" onmouseover="changeText(20, '[hidden].ui', 149, 'styles.css')" /><circle class="fsk-svg-node" cx="105" cy="277" r="3"/></g><g class="fsk-svg-group"><rect x="110" y="0" width="10" height="100%"  style="cursor: pointer; fill: rgba(255, 0 ,0,0);" onmouseover="changeText(1, 'html', 167, 'styles.css')" /><circle class="fsk-svg-node" cx="115" cy="296" r="3"/></g><g class="fsk-svg-group"><rect x="120" y="0" width="10" height="100%"  style="cursor: pointer; fill: rgba(255, 0 ,0,0);" onmouseover="changeText(1, 'html', 173, 'styles.css')" /><circle class="fsk-svg-node" cx="125" cy="296" r="3"/></g><g class="fsk-svg-group"><rect x="130" y="0" width="10" height="100%"  style="cursor: pointer; fill: rgba(255, 0 ,0,0);" onmouseover="changeText(11, 'button.ui', 173, 'styles.css')" /><circle class="fsk-svg-node" cx="135" cy="286" r="3"/></g><g class="fsk-svg-group"><rect x="140" y="0" width="10" height="100%"  style="cursor: pointer; fill: rgba(255, 0 ,0,0);" onmouseover="changeText(11, 'input.ui', 173, 'styles.css')" /><circle class="fsk-svg-node" cx="145" cy="286" r="3"/></g><g class="fsk-svg-group"><rect x="150" y="0" width="10" height="100%"  style="cursor: pointer; fill: rgba(255, 0 ,0,0);" onmouseover="changeText(11, 'select.ui', 173, 'styles.css')" /><circle class="fsk-svg-node" cx="155" cy="286" r="3"/></g><g class="fsk-svg-group"><rect x="160" y="0" width="10" height="100%"  style="cursor: pointer; fill: rgba(255, 0 ,0,0);" onmouseover="changeText(11, 'textarea.ui', 173, 'styles.css')" /><circle class="fsk-svg-node" cx="165" cy="286" r="3"/></g><g class="fsk-svg-group"><rect x="170" y="0" width="10" height="100%"  style="cursor: pointer; fill: rgba(255, 0 ,0,0);" onmouseover="changeText(1, 'body', 180, 'styles.css')" /><circle class="fsk-svg-node" cx="175" cy="296" r="3"/></g><g class="fsk-svg-group"><rect x="180" y="0" width="10" height="100%"  style="cursor: pointer; fill: rgba(255, 0 ,0,0);" onmouseover="changeText(21, 'abbr[title].ui', 205, 'styles.css')" /><circle class="fsk-svg-node" cx="185" cy="276" r="3"/></g><g class="fsk-svg-group"><rect x="190" y="0" width="10" height="100%"  style="cursor: pointer; fill: rgba(255, 0 ,0,0);" onmouseover="changeText(11, 'b.ui', 208, 'styles.css')" /><circle class="fsk-svg-node" cx="195" cy="286" r="3"/></g><g class="fsk-svg-group"><rect x="200" y="0" width="10" height="100%"  style="cursor: pointer; fill: rgba(255, 0 ,0,0);" onmouseover="changeText(11, 'strong.ui', 208, 'styles.css')" /><circle class="fsk-svg-node" cx="205" cy="286" r="3"/></g><g class="fsk-svg-group"><rect x="210" y="0" width="10" height="100%"  style="cursor: pointer; fill: rgba(255, 0 ,0,0);" onmouseover="changeText(11, 'dfn.ui', 212, 'styles.css')" /><circle class="fsk-svg-node" cx="215" cy="286" r="3"/></g><g class="fsk-svg-group"><rect x="220" y="0" width="10" height="100%"  style="cursor: pointer; fill: rgba(255, 0 ,0,0);" onmouseover="changeText(11, 'mark.ui', 215, 'styles.css')" /><circle class="fsk-svg-node" cx="225" cy="286" r="3"/></g><g class="fsk-svg-group"><rect x="230" y="0" width="10" height="100%"  style="cursor: pointer; fill: rgba(255, 0 ,0,0);" onmouseover="changeText(11, 'code.ui', 219, 'styles.css')" /><circle class="fsk-svg-node" cx="235" cy="286" r="3"/></g><g class="fsk-svg-group"><rect x="240" y="0" width="10" height="100%"  style="cursor: pointer; fill: rgba(255, 0 ,0,0);" onmouseover="changeText(11, 'kbd.ui', 219, 'styles.css')" /><circle class="fsk-svg-node" cx="245" cy="286" r="3"/></g><g class="fsk-svg-group"><rect x="250" y="0" width="10" height="100%"  style="cursor: pointer; fill: rgba(255, 0 ,0,0);" onmouseover="changeText(11, 'pre.ui', 219, 'styles.css')" /><circle class="fsk-svg-node" cx="255" cy="286" r="3"/></g><g class="fsk-svg-group"><rect x="260" y="0" width="10" height="100%"  style="cursor: pointer; fill: rgba(255, 0 ,0,0);" onmouseover="changeText(11, 'samp.ui', 219, 'styles.css')" /><circle class="fsk-svg-node" cx="265" cy="286" r="3"/></g><g class="fsk-svg-group"><rect x="270" y="0" width="10" height="100%"  style="cursor: pointer; fill: rgba(255, 0 ,0,0);" onmouseover="changeText(11, 'pre.ui', 226, 'styles.css')" /><circle class="fsk-svg-node" cx="275" cy="286" r="3"/></g><g class="fsk-svg-group"><rect x="280" y="0" width="10" height="100%"  style="cursor: pointer; fill: rgba(255, 0 ,0,0);" onmouseover="changeText(11, 'q.ui', 231, 'styles.css')" /><circle class="fsk-svg-node" cx="285" cy="286" r="3"/></g><g class="fsk-svg-group"><rect x="290" y="0" width="10" height="100%"  style="cursor: pointer; fill: rgba(255, 0 ,0,0);" onmouseover="changeText(12, 'q.ui:before', 234, 'styles.css')" /><circle class="fsk-svg-node" cx="295" cy="285" r="3"/></g><g class="fsk-svg-group"><rect x="300" y="0" width="10" height="100%"  style="cursor: pointer; fill: rgba(255, 0 ,0,0);" onmouseover="changeText(12, 'q.ui:after', 234, 'styles.css')" /><circle class="fsk-svg-node" cx="305" cy="285" r="3"/></g><g class="fsk-svg-group"><rect x="310" y="0" width="10" height="100%"  style="cursor: pointer; fill: rgba(255, 0 ,0,0);" onmouseover="changeText(11, 'small.ui', 239, 'styles.css')" /><circle class="fsk-svg-node" cx="315" cy="286" r="3"/></g><g class="fsk-svg-group"><rect x="320" y="0" width="10" height="100%"  style="cursor: pointer; fill: rgba(255, 0 ,0,0);" onmouseover="changeText(11, 'sub.ui', 242, 'styles.css')" /><circle class="fsk-svg-node" cx="325" cy="286" r="3"/></g><g class="fsk-svg-group"><rect x="330" y="0" width="10" height="100%"  style="cursor: pointer; fill: rgba(255, 0 ,0,0);" onmouseover="changeText(11, 'sup.ui', 242, 'styles.css')" /><circle class="fsk-svg-node" cx="335" cy="286" r="3"/></g><g class="fsk-svg-group"><rect x="340" y="0" width="10" height="100%"  style="cursor: pointer; fill: rgba(255, 0 ,0,0);" onmouseover="changeText(11, 'sup.ui', 249, 'styles.css')" /><circle class="fsk-svg-node" cx="345" cy="286" r="3"/></g><g class="fsk-svg-group"><rect x="350" y="0" width="10" height="100%"  style="cursor: pointer; fill: rgba(255, 0 ,0,0);" onmouseover="changeText(11, 'sub.ui', 252, 'styles.css')" /><circle class="fsk-svg-node" cx="355" cy="286" r="3"/></g><g class="fsk-svg-group"><rect x="360" y="0" width="10" height="100%"  style="cursor: pointer; fill: rgba(255, 0 ,0,0);" onmouseover="changeText(1, 'img', 266, 'styles.css')" /><circle class="fsk-svg-node" cx="365" cy="296" r="3"/></g><g class="fsk-svg-group"><rect x="370" y="0" width="10" height="100%"  style="cursor: pointer; fill: rgba(255, 0 ,0,0);" onmouseover="changeText(11, 'svg:not(:root)', 269, 'styles.css')" /><circle class="fsk-svg-node" cx="375" cy="286" r="3"/></g><g class="fsk-svg-group"><rect x="380" y="0" width="10" height="100%"  style="cursor: pointer; fill: rgba(255, 0 ,0,0);" onmouseover="changeText(1, 'figure', 282, 'styles.css')" /><circle class="fsk-svg-node" cx="385" cy="296" r="3"/></g><g class="fsk-svg-group"><rect x="390" y="0" width="10" height="100%"  style="cursor: pointer; fill: rgba(255, 0 ,0,0);" onmouseover="changeText(11, 'fieldset.ui', 322, 'styles.css')" /><circle class="fsk-svg-node" cx="395" cy="286" r="3"/></g><g class="fsk-svg-group"><rect x="400" y="0" width="10" height="100%"  style="cursor: pointer; fill: rgba(255, 0 ,0,0);" onmouseover="changeText(11, 'legend.ui', 327, 'styles.css')" /><circle class="fsk-svg-node" cx="405" cy="286" r="3"/></g><g class="fsk-svg-group"><rect x="410" y="0" width="10" height="100%"  style="cursor: pointer; fill: rgba(255, 0 ,0,0);" onmouseover="changeText(11, 'button.ui', 332, 'styles.css')" /><circle class="fsk-svg-node" cx="415" cy="286" r="3"/></g><g class="fsk-svg-group"><rect x="420" y="0" width="10" height="100%"  style="cursor: pointer; fill: rgba(255, 0 ,0,0);" onmouseover="changeText(11, 'input.ui', 332, 'styles.css')" /><circle class="fsk-svg-node" cx="425" cy="286" r="3"/></g><g class="fsk-svg-group"><rect x="430" y="0" width="10" height="100%"  style="cursor: pointer; fill: rgba(255, 0 ,0,0);" onmouseover="changeText(11, 'select.ui', 332, 'styles.css')" /><circle class="fsk-svg-node" cx="435" cy="286" r="3"/></g><g class="fsk-svg-group"><rect x="440" y="0" width="10" height="100%"  style="cursor: pointer; fill: rgba(255, 0 ,0,0);" onmouseover="changeText(11, 'textarea.ui', 332, 'styles.css')" /><circle class="fsk-svg-node" cx="445" cy="286" r="3"/></g><g class="fsk-svg-group"><rect x="450" y="0" width="10" height="100%"  style="cursor: pointer; fill: rgba(255, 0 ,0,0);" onmouseover="changeText(11, 'button.ui', 341, 'styles.css')" /><circle class="fsk-svg-node" cx="455" cy="286" r="3"/></g><g class="fsk-svg-group"><rect x="460" y="0" width="10" height="100%"  style="cursor: pointer; fill: rgba(255, 0 ,0,0);" onmouseover="changeText(11, 'input.ui', 341, 'styles.css')" /><circle class="fsk-svg-node" cx="465" cy="286" r="3"/></g><g class="fsk-svg-group"><rect x="470" y="0" width="10" height="100%"  style="cursor: pointer; fill: rgba(255, 0 ,0,0);" onmouseover="changeText(11, 'button.ui', 345, 'styles.css')" /><circle class="fsk-svg-node" cx="475" cy="286" r="3"/></g><g class="fsk-svg-group"><rect x="480" y="0" width="10" height="100%"  style="cursor: pointer; fill: rgba(255, 0 ,0,0);" onmouseover="changeText(11, 'select.ui', 345, 'styles.css')" /><circle class="fsk-svg-node" cx="485" cy="286" r="3"/></g><g class="fsk-svg-group"><rect x="490" y="0" width="10" height="100%"  style="cursor: pointer; fill: rgba(255, 0 ,0,0);" onmouseover="changeText(11, 'button.ui', 349, 'styles.css')" /><circle class="fsk-svg-node" cx="495" cy="286" r="3"/></g><g class="fsk-svg-group"><rect x="500" y="0" width="10" height="100%"  style="cursor: pointer; fill: rgba(255, 0 ,0,0);" onmouseover="changeText(22, 'html input[type='button'].ui', 349, 'styles.css')" /><circle class="fsk-svg-node" cx="505" cy="275" r="3"/></g><g class="fsk-svg-group"><rect x="510" y="0" width="10" height="100%"  style="cursor: pointer; fill: rgba(255, 0 ,0,0);" onmouseover="changeText(21, 'input[type='reset'].ui', 349, 'styles.css')" /><circle class="fsk-svg-node" cx="515" cy="276" r="3"/></g><g class="fsk-svg-group"><rect x="520" y="0" width="10" height="100%"  style="cursor: pointer; fill: rgba(255, 0 ,0,0);" onmouseover="changeText(21, 'input[type='submit'].ui', 349, 'styles.css')" /><circle class="fsk-svg-node" cx="525" cy="276" r="3"/></g><g class="fsk-svg-group"><rect x="530" y="0" width="10" height="100%"  style="cursor: pointer; fill: rgba(255, 0 ,0,0);" onmouseover="changeText(21, 'button[disabled].ui', 357, 'styles.css')" /><circle class="fsk-svg-node" cx="535" cy="276" r="3"/></g><g class="fsk-svg-group"><rect x="540" y="0" width="10" height="100%"  style="cursor: pointer; fill: rgba(255, 0 ,0,0);" onmouseover="changeText(21, 'input[disabled].ui', 357, 'styles.css')" /><circle class="fsk-svg-node" cx="545" cy="276" r="3"/></g><g class="fsk-svg-group"><rect x="550" y="0" width="10" height="100%"  style="cursor: pointer; fill: rgba(255, 0 ,0,0);" onmouseover="changeText(21, 'input[type='checkbox'].ui', 361, 'styles.css')" /><circle class="fsk-svg-node" cx="555" cy="276" r="3"/></g><g class="fsk-svg-group"><rect x="560" y="0" width="10" height="100%"  style="cursor: pointer; fill: rgba(255, 0 ,0,0);" onmouseover="changeText(21, 'input[type='radio'].ui', 361, 'styles.css')" /><circle class="fsk-svg-node" cx="565" cy="276" r="3"/></g><g class="fsk-svg-group"><rect x="570" y="0" width="10" height="100%"  style="cursor: pointer; fill: rgba(255, 0 ,0,0);" onmouseover="changeText(21, 'input[type='search'].ui', 366, 'styles.css')" /><circle class="fsk-svg-node" cx="575" cy="276" r="3"/></g><g class="fsk-svg-group"><rect x="580" y="0" width="10" height="100%"  style="cursor: pointer; fill: rgba(255, 0 ,0,0);" onmouseover="changeText(22, 'input[type='search'].ui::-webkit-search-cancel-button', 370, 'styles.css')" /><circle class="fsk-svg-node" cx="585" cy="275" r="3"/></g><g class="fsk-svg-group"><rect x="590" y="0" width="10" height="100%"  style="cursor: pointer; fill: rgba(255, 0 ,0,0);" onmouseover="changeText(22, 'input[type='search'].ui::-webkit-search-decoration', 370, 'styles.css')" /><circle class="fsk-svg-node" cx="595" cy="275" r="3"/></g><g class="fsk-svg-group"><rect x="600" y="0" width="10" height="100%"  style="cursor: pointer; fill: rgba(255, 0 ,0,0);" onmouseover="changeText(12, 'button.u::-moz-focus-inner', 374, 'styles.css')" /><circle class="fsk-svg-node" cx="605" cy="285" r="3"/></g><g class="fsk-svg-group"><rect x="610" y="0" width="10" height="100%"  style="cursor: pointer; fill: rgba(255, 0 ,0,0);" onmouseover="changeText(12, 'input.ui::-moz-focus-inner', 374, 'styles.css')" /><circle class="fsk-svg-node" cx="615" cy="285" r="3"/></g><g class="fsk-svg-group"><rect x="620" y="0" width="10" height="100%"  style="cursor: pointer; fill: rgba(255, 0 ,0,0);" onmouseover="changeText(11, 'textarea.ui', 379, 'styles.css')" /><circle class="fsk-svg-node" cx="625" cy="286" r="3"/></g><g class="fsk-svg-group"><rect x="630" y="0" width="10" height="100%"  style="cursor: pointer; fill: rgba(255, 0 ,0,0);" onmouseover="changeText(10, '.ui', 401, 'styles.css')" /><circle class="fsk-svg-node" cx="635" cy="287" r="3"/></g><g class="fsk-svg-group"><rect x="640" y="0" width="10" height="100%"  style="cursor: pointer; fill: rgba(255, 0 ,0,0);" onmouseover="changeText(11, '.ui:before', 401, 'styles.css')" /><circle class="fsk-svg-node" cx="645" cy="286" r="3"/></g><g class="fsk-svg-group"><rect x="650" y="0" width="10" height="100%"  style="cursor: pointer; fill: rgba(255, 0 ,0,0);" onmouseover="changeText(11, '.ui:after', 401, 'styles.css')" /><circle class="fsk-svg-node" cx="655" cy="286" r="3"/></g><g class="fsk-svg-group"><rect x="660" y="0" width="10" height="100%"  style="cursor: pointer; fill: rgba(255, 0 ,0,0);" onmouseover="changeText(1, 'html', 406, 'styles.css')" /><circle class="fsk-svg-node" cx="665" cy="296" r="3"/></g><g class="fsk-svg-group"><rect x="670" y="0" width="10" height="100%"  style="cursor: pointer; fill: rgba(255, 0 ,0,0);" onmouseover="changeText(1, 'body', 406, 'styles.css')" /><circle class="fsk-svg-node" cx="675" cy="296" r="3"/></g><g class="fsk-svg-group"><rect x="680" y="0" width="10" height="100%"  style="cursor: pointer; fill: rgba(255, 0 ,0,0);" onmouseover="changeText(1, 'img', 412, 'styles.css')" /><circle class="fsk-svg-node" cx="685" cy="296" r="3"/></g><g class="fsk-svg-group"><rect x="690" y="0" width="10" height="100%"  style="cursor: pointer; fill: rgba(255, 0 ,0,0);" onmouseover="changeText(20, '.ui:focus', 415, 'styles.css')" /><circle class="fsk-svg-node" cx="695" cy="277" r="3"/></g><g class="fsk-svg-group"><rect x="700" y="0" width="10" height="100%"  style="cursor: pointer; fill: rgba(255, 0 ,0,0);" onmouseover="changeText(21, '.ui:focus:before', 415, 'styles.css')" /><circle class="fsk-svg-node" cx="705" cy="276" r="3"/></g><g class="fsk-svg-group"><rect x="710" y="0" width="10" height="100%"  style="cursor: pointer; fill: rgba(255, 0 ,0,0);" onmouseover="changeText(21, '.ui:focus:after', 415, 'styles.css')" /><circle class="fsk-svg-node" cx="715" cy="276" r="3"/></g><g class="fsk-svg-group"><rect x="720" y="0" width="10" height="100%"  style="cursor: pointer; fill: rgba(255, 0 ,0,0);" onmouseover="changeText(11, 'h1.ui', 446, 'styles.css')" /><circle class="fsk-svg-node" cx="725" cy="286" r="3"/></g><g class="fsk-svg-group"><rect x="730" y="0" width="10" height="100%"  style="cursor: pointer; fill: rgba(255, 0 ,0,0);" onmouseover="changeText(11, 'h2.ui', 446, 'styles.css')" /><circle class="fsk-svg-node" cx="735" cy="286" r="3"/></g><g class="fsk-svg-group"><rect x="740" y="0" width="10" height="100%"  style="cursor: pointer; fill: rgba(255, 0 ,0,0);" onmouseover="changeText(11, 'h3.ui', 446, 'styles.css')" /><circle class="fsk-svg-node" cx="745" cy="286" r="3"/></g><g class="fsk-svg-group"><rect x="750" y="0" width="10" height="100%"  style="cursor: pointer; fill: rgba(255, 0 ,0,0);" onmouseover="changeText(11, 'h4.ui', 446, 'styles.css')" /><circle class="fsk-svg-node" cx="755" cy="286" r="3"/></g><g class="fsk-svg-group"><rect x="760" y="0" width="10" height="100%"  style="cursor: pointer; fill: rgba(255, 0 ,0,0);" onmouseover="changeText(11, 'h5.ui', 446, 'styles.css')" /><circle class="fsk-svg-node" cx="765" cy="286" r="3"/></g><g class="fsk-svg-group"><rect x="770" y="0" width="10" height="100%"  style="cursor: pointer; fill: rgba(255, 0 ,0,0);" onmouseover="changeText(11, 'h6.ui', 446, 'styles.css')" /><circle class="fsk-svg-node" cx="775" cy="286" r="3"/></g><g class="fsk-svg-group"><rect x="780" y="0" width="10" height="100%"  style="cursor: pointer; fill: rgba(255, 0 ,0,0);" onmouseover="changeText(11, 'p.ui', 446, 'styles.css')" /><circle class="fsk-svg-node" cx="785" cy="286" r="3"/></g><g class="fsk-svg-group"><rect x="790" y="0" width="10" height="100%"  style="cursor: pointer; fill: rgba(255, 0 ,0,0);" onmouseover="changeText(11, 'h1.ui', 456, 'styles.css')" /><circle class="fsk-svg-node" cx="795" cy="286" r="3"/></g><g class="fsk-svg-group"><rect x="800" y="0" width="10" height="100%"  style="cursor: pointer; fill: rgba(255, 0 ,0,0);" onmouseover="changeText(20, '.ui.h1', 456, 'styles.css')" /><circle class="fsk-svg-node" cx="805" cy="277" r="3"/></g><g class="fsk-svg-group"><rect x="810" y="0" width="10" height="100%"  style="cursor: pointer; fill: rgba(255, 0 ,0,0);" onmouseover="changeText(11, 'h2.ui', 461, 'styles.css')" /><circle class="fsk-svg-node" cx="815" cy="286" r="3"/></g><g class="fsk-svg-group"><rect x="820" y="0" width="10" height="100%"  style="cursor: pointer; fill: rgba(255, 0 ,0,0);" onmouseover="changeText(20, '.ui.h2', 461, 'styles.css')" /><circle class="fsk-svg-node" cx="825" cy="277" r="3"/></g><g class="fsk-svg-group"><rect x="830" y="0" width="10" height="100%"  style="cursor: pointer; fill: rgba(255, 0 ,0,0);" onmouseover="changeText(11, 'h3.ui', 465, 'styles.css')" /><circle class="fsk-svg-node" cx="835" cy="286" r="3"/></g><g class="fsk-svg-group"><rect x="840" y="0" width="10" height="100%"  style="cursor: pointer; fill: rgba(255, 0 ,0,0);" onmouseover="changeText(20, '.ui.h3', 465, 'styles.css')" /><circle class="fsk-svg-node" cx="845" cy="277" r="3"/></g><g class="fsk-svg-group"><rect x="850" y="0" width="10" height="100%"  style="cursor: pointer; fill: rgba(255, 0 ,0,0);" onmouseover="changeText(11, 'h4.ui', 470, 'styles.css')" /><circle class="fsk-svg-node" cx="855" cy="286" r="3"/></g><g class="fsk-svg-group"><rect x="860" y="0" width="10" height="100%"  style="cursor: pointer; fill: rgba(255, 0 ,0,0);" onmouseover="changeText(20, '.ui.h4', 470, 'styles.css')" /><circle class="fsk-svg-node" cx="865" cy="277" r="3"/></g><g class="fsk-svg-group"><rect x="870" y="0" width="10" height="100%"  style="cursor: pointer; fill: rgba(255, 0 ,0,0);" onmouseover="changeText(11, 'h5.ui', 476, 'styles.css')" /><circle class="fsk-svg-node" cx="875" cy="286" r="3"/></g><g class="fsk-svg-group"><rect x="880" y="0" width="10" height="100%"  style="cursor: pointer; fill: rgba(255, 0 ,0,0);" onmouseover="changeText(20, '.ui.h5', 476, 'styles.css')" /><circle class="fsk-svg-node" cx="885" cy="277" r="3"/></g><g class="fsk-svg-group"><rect x="890" y="0" width="10" height="100%"  style="cursor: pointer; fill: rgba(255, 0 ,0,0);" onmouseover="changeText(11, 'h6.ui', 481, 'styles.css')" /><circle class="fsk-svg-node" cx="895" cy="286" r="3"/></g><g class="fsk-svg-group"><rect x="900" y="0" width="10" height="100%"  style="cursor: pointer; fill: rgba(255, 0 ,0,0);" onmouseover="changeText(20, '.ui.h6', 481, 'styles.css')" /><circle class="fsk-svg-node" cx="905" cy="277" r="3"/></g><g class="fsk-svg-group"><rect x="910" y="0" width="10" height="100%"  style="cursor: pointer; fill: rgba(255, 0 ,0,0);" onmouseover="changeText(11, 'p.ui', 485, 'styles.css')" /><circle class="fsk-svg-node" cx="915" cy="286" r="3"/></g><g class="fsk-svg-group"><rect x="920" y="0" width="10" height="100%"  style="cursor: pointer; fill: rgba(255, 0 ,0,0);" onmouseover="changeText(11, 'a.ui', 505, 'styles.css')" /><circle class="fsk-svg-node" cx="925" cy="286" r="3"/></g><g class="fsk-svg-group"><rect x="930" y="0" width="10" height="100%"  style="cursor: pointer; fill: rgba(255, 0 ,0,0);" onmouseover="changeText(21, 'a.ui:hover', 509, 'styles.css')" /><circle class="fsk-svg-node" cx="935" cy="276" r="3"/></g><g class="fsk-svg-group"><rect x="940" y="0" width="10" height="100%"  style="cursor: pointer; fill: rgba(255, 0 ,0,0);" onmouseover="changeText(21, 'a.ui:active', 509, 'styles.css')" /><circle class="fsk-svg-node" cx="945" cy="276" r="3"/></g><g class="fsk-svg-group"><rect x="950" y="0" width="10" height="100%"  style="cursor: pointer; fill: rgba(255, 0 ,0,0);" onmouseover="changeText(20, '.ui.h-collapse', 514, 'styles.css')" /><circle class="fsk-svg-node" cx="955" cy="277" r="3"/></g><g class="fsk-svg-group"><rect x="960" y="0" width="10" height="100%"  style="cursor: pointer; fill: rgba(255, 0 ,0,0);" onmouseover="changeText(20, '.ui.heading-collapse', 514, 'styles.css')" /><circle class="fsk-svg-node" cx="965" cy="277" r="3"/></g><g class="fsk-svg-group"><rect x="970" y="0" width="10" height="100%"  style="cursor: pointer; fill: rgba(255, 0 ,0,0);" onmouseover="changeText(20, '.ui.heading', 552, 'styles.css')" /><circle class="fsk-svg-node" cx="975" cy="277" r="3"/></g><g class="fsk-svg-group"><rect x="980" y="0" width="10" height="100%"  style="cursor: pointer; fill: rgba(255, 0 ,0,0);" onmouseover="changeText(30, '.ui.sub.heading', 560, 'styles.css')" /><circle class="fsk-svg-node" cx="985" cy="267" r="3"/></g><g class="fsk-svg-group"><rect x="990" y="0" width="10" height="100%"  style="cursor: pointer; fill: rgba(255, 0 ,0,0);" onmouseover="changeText(40, '.ui.heading .ui.icon', 568, 'styles.css')" /><circle class="fsk-svg-node" cx="995" cy="257" r="3"/></g><g class="fsk-svg-group"><rect x="1000" y="0" width="10" height="100%"  style="cursor: pointer; fill: rgba(255, 0 ,0,0);" onmouseover="changeText(50, '.ui.heading .ui.icon:only-child', 573, 'styles.css')" /><circle class="fsk-svg-node" cx="1005" cy="247" r="3"/></g><g class="fsk-svg-group"><rect x="1010" y="0" width="10" height="100%"  style="cursor: pointer; fill: rgba(255, 0 ,0,0);" onmouseover="changeText(20, '.ui.subject', 577, 'styles.css')" /><circle class="fsk-svg-node" cx="1015" cy="277" r="3"/></g><g class="fsk-svg-group"><rect x="1020" y="0" width="10" height="100%"  style="cursor: pointer; fill: rgba(255, 0 ,0,0);" onmouseover="changeText(40, '.ui.icon + .ui.subject', 581, 'styles.css')" /><circle class="fsk-svg-node" cx="1025" cy="257" r="3"/></g><g class="fsk-svg-group"><rect x="1030" y="0" width="10" height="100%"  style="cursor: pointer; fill: rgba(255, 0 ,0,0);" onmouseover="changeText(30, '.ui.heading:first-child', 585, 'styles.css')" /><circle class="fsk-svg-node" cx="1035" cy="267" r="3"/></g><g class="fsk-svg-group"><rect x="1040" y="0" width="10" height="100%"  style="cursor: pointer; fill: rgba(255, 0 ,0,0);" onmouseover="changeText(30, '.ui.heading:last-child', 588, 'styles.css')" /><circle class="fsk-svg-node" cx="1045" cy="267" r="3"/></g><g class="fsk-svg-group"><rect x="1050" y="0" width="10" height="100%"  style="cursor: pointer; fill: rgba(255, 0 ,0,0);" onmouseover="changeText(21, '.ui.heading + p', 591, 'styles.css')" /><circle class="fsk-svg-node" cx="1055" cy="276" r="3"/></g><g class="fsk-svg-group"><rect x="1060" y="0" width="10" height="100%"  style="cursor: pointer; fill: rgba(255, 0 ,0,0);" onmouseover="changeText(30, '.ui.block.heading', 594, 'styles.css')" /><circle class="fsk-svg-node" cx="1065" cy="267" r="3"/></g><g class="fsk-svg-group"><rect x="1070" y="0" width="10" height="100%"  style="cursor: pointer; fill: rgba(255, 0 ,0,0);" onmouseover="changeText(20, '.ui.divided', 617, 'styles.css')" /><circle class="fsk-svg-node" cx="1075" cy="277" r="3"/></g><g class="fsk-svg-group"><rect x="1080" y="0" width="10" height="100%"  style="cursor: pointer; fill: rgba(255, 0 ,0,0);" onmouseover="changeText(20, '.ui.dividing', 617, 'styles.css')" /><circle class="fsk-svg-node" cx="1085" cy="277" r="3"/></g><g class="fsk-svg-group"><rect x="1090" y="0" width="10" height="100%"  style="cursor: pointer; fill: rgba(255, 0 ,0,0);" onmouseover="changeText(30, '.ui.clearing.divider', 621, 'styles.css')" /><circle class="fsk-svg-node" cx="1095" cy="267" r="3"/></g><g class="fsk-svg-group"><rect x="1100" y="0" width="10" height="100%"  style="cursor: pointer; fill: rgba(255, 0 ,0,0);" onmouseover="changeText(20, '.ui.divider', 624, 'styles.css')" /><circle class="fsk-svg-node" cx="1105" cy="277" r="3"/></g><g class="fsk-svg-group"><rect x="1110" y="0" width="10" height="100%"  style="cursor: pointer; fill: rgba(255, 0 ,0,0);" onmouseover="changeText(213, '#nav li a:not(#mobile-close-nav-btn) a a a a a a a a a a a', 631, 'styles.css')" /><circle class="fsk-svg-node" cx="1115" cy="84" r="3"/></g><g class="fsk-svg-group"><rect x="1120" y="0" width="10" height="100%"  style="cursor: pointer; fill: rgba(255, 0 ,0,0);" onmouseover="changeText(10, '.class', 634, 'styles.css')" /><circle class="fsk-svg-node" cx="1125" cy="287" r="3"/></g><g class="fsk-svg-group"><rect x="1130" y="0" width="10" height="100%"  style="cursor: pointer; fill: rgba(255, 0 ,0,0);" onmouseover="changeText(11, '.class:before', 636, 'styles.css')" /><circle class="fsk-svg-node" cx="1135" cy="286" r="3"/></g><g class="fsk-svg-group"><rect x="1140" y="0" width="10" height="100%"  style="cursor: pointer; fill: rgba(255, 0 ,0,0);" onmouseover="changeText(11, '.class:after', 636, 'styles.css')" /><circle class="fsk-svg-node" cx="1145" cy="286" r="3"/></g><g class="fsk-svg-group"><rect x="1150" y="0" width="10" height="100%"  style="cursor: pointer; fill: rgba(255, 0 ,0,0);" onmouseover="changeText(11, '.class:after', 640, 'styles.css')" /><circle class="fsk-svg-node" cx="1155" cy="286" r="3"/></g><g class="fsk-svg-group"><rect x="1160" y="0" width="10" height="100%"  style="cursor: pointer; fill: rgba(255, 0 ,0,0);" onmouseover="changeText(10, '.base', 643, 'styles.css')" /><circle class="fsk-svg-node" cx="1165" cy="287" r="3"/></g><g class="fsk-svg-group"><rect x="1170" y="0" width="10" height="100%"  style="cursor: pointer; fill: rgba(255, 0 ,0,0);" onmouseover="changeText(10, '.foo', 643, 'styles.css')" /><circle class="fsk-svg-node" cx="1175" cy="287" r="3"/></g><g class="fsk-svg-group"><rect x="1180" y="0" width="10" height="100%"  style="cursor: pointer; fill: rgba(255, 0 ,0,0);" onmouseover="changeText(10, '.bar', 646, 'styles.css')" /><circle class="fsk-svg-node" cx="1185" cy="287" r="3"/></g><text transform="translate(10 24)" fill="#555" font-family="sans-serif" font-size="24" id="textSpec">--</text><text transform="translate(10 40)" fill="#444" font-family="sans-serif" font-size="10" id="textSel">null</text><text transform="translate(55 20)" fill="#666" font-family="sans-serif" font-size="10">line: </text><text transform="translate(75 20)" fill="#444" font-family="sans-serif" font-size="10" id="textLine">--</text><text transform="translate(100 20)" fill="#666" font-family="sans-serif" font-size="10">file: </text><text transform="translate(120 20)" fill="#444" font-family="sans-serif" font-size="10" id="textFile">null</text></svg>