<?xml version="1.0" encoding="utf-8"?>
<!-- Generated by IcoMoon.io -->
<!DOCTYPE svg PUBLIC "-//W3C//DTD SVG 1.1//EN" "http://www.w3.org/Graphics/SVG/1.1/DTD/svg11.dtd">
<svg  xmlns="http://www.w3.org/2000/svg" style="display:none;">
	<symbol id="search" viewBox="0 0 768 768"><path d="M320 32q58.5 0 111.875 22.875t91.875 61.375 61.375 91.875 22.875 111.875q0 50.25-16.375 96.25t-46.625 83.5l181.75 181.5q9.25 9.25 9.25 22.75 0 13.75-9.125 22.875t-22.875 9.125q-13.5 0-22.75-9.25l-181.5-181.75q-37.5 30.25-83.5 46.625t-96.25 16.375q-58.5 0-111.875-22.875t-91.875-61.375-61.375-91.875-22.875-111.875 22.875-111.875 61.375-91.875 91.875-61.375 111.875-22.875zM320 96q-45.5 0-87 17.75t-71.5 47.75-47.75 71.5-17.75 87 17.75 87 47.75 71.5 71.5 47.75 87 17.75 87-17.75 71.5-47.75 47.75-71.5 17.75-87-17.75-87-47.75-71.5-71.5-47.75-87-17.75z"></path></symbol>
	<symbol id="close" viewBox="0 0 768 768"><path d="M608 128q13.75 0 22.875 9.125t9.125 22.875q0 13.5-9.25 22.75l-201.5 201.25 201.5 201.25q9.25 9.25 9.25 22.75 0 13.75-9.125 22.875t-22.875 9.125q-13.5 0-22.75-9.25l-201.25-201.5-201.25 201.5q-9.25 9.25-22.75 9.25-13.75 0-22.875-9.125t-9.125-22.875q0-13.5 9.25-22.75l201.5-201.25-201.5-201.25q-9.25-9.25-9.25-22.75 0-13.75 9.125-22.875t22.875-9.125q13.5 0 22.75 9.25l201.25 201.5 201.25-201.5q9.25-9.25 22.75-9.25z"></path></symbol>
	<symbol id="view" viewBox="0 0 768 768"><path d="M384 96q52.25 0 101.625 15.875t86.625 41.25 70.125 56.125 55.25 61.5 38.75 56.125 24.125 41.125l7.5 16q-1.75 3.75-4.75 10.125t-14.125 26-23.75 38.75-33.25 45-42.625 48.25-52.125 45.125-61.75 38.625-71.125 26-80.5 10.125q-52.25 0-101.625-15.875t-86.625-41.125-70.125-55.75-55.25-61.125-38.75-55.875-24.125-41.25l-7.5-15.75q1.75-3.75 4.75-10.125t14.125-26.125 23.75-38.875 33.25-45.25 42.625-48.5 52.125-45.25 61.75-38.875 71.125-26.125 80.5-10.125zM384 160q-35 0-68.75 9.25t-60.875 23.875-53 35.375-44.75 40.875-36.625 43.25-28.25 39.625-19.75 33q9.25 16.25 19.75 32.625t28.25 39.25 36.625 42.75 44.75 40.375 53 35 60.875 23.625 68.75 9.125 68.75-9.25 60.875-23.75 53-35.125 44.75-40.625 36.625-43 28.25-39.5 19.75-32.75q-9.25-16.25-19.75-32.75t-28.25-39.5-36.625-43-44.75-40.625-53-35.125-60.875-23.75-68.75-9.25zM384 256q53 0 90.5 37.5t37.5 90.5-37.5 90.5-90.5 37.5-90.5-37.5-37.5-90.5 37.5-90.5 90.5-37.5zM384 320q-26.5 0-45.25 18.75t-18.75 45.25 18.75 45.25 45.25 18.75 45.25-18.75 18.75-45.25-18.75-45.25-45.25-18.75z"></path></symbol>
	<symbol id="top" viewBox="0 0 768 768"><path d="M128 576q0-13.25 9.5-22.75l224-224q9.25-9.25 22.5-9.25 13.5 0 22.75 9.25l224 224q9.25 9.25 9.25 22.75 0 13.25-9.25 22.625t-22.5 9.375q-13 0-22.75-9.25l-201.5-201.5-201.25 201.5q-9.75 9.25-22.75 9.25-13.25 0-22.625-9.375t-9.375-22.625zM128 224q0-13.25 9.375-22.625t22.625-9.375h448q13.25 0 22.625 9.375t9.375 22.625-9.375 22.625-22.625 9.375h-448q-13.25 0-22.625-9.375t-9.375-22.625z"></path></symbol>
	<symbol id="back" viewBox="0 0 768 768"><path d="M320 128q13.25 0 22.625 9.375t9.375 22.625q0 13.5-9.5 22.75l-169.25 169.25h498.75q13.25 0 22.625 9.375t9.375 22.625-9.375 22.625-22.625 9.375h-498.75l169.25 169.25q9.5 9.25 9.5 22.75 0 13.25-9.375 22.625t-22.625 9.375q-13.5 0-22.75-9.25l-224-224q-9.25-9.75-9.25-22.75t9.25-22.75l224-224q9.5-9.25 22.75-9.25z"></path></symbol>
	<symbol id="java" viewBox="0 9 768 768"><path d="M734 137v224c0 8.8-3.1 16.4-9.4 22.6S710.9 393 702 393s-16.4-3.1-22.6-9.4-9.4-13.8-9.4-22.6V137c0-8.8-3.1-16.4-9.4-22.6S646.9 105 638 105H126c-8.8 0-16.4 3.1-22.6 9.4S94 128.2 94 137v512c0 8.8 3.1 16.4 9.4 22.6s13.8 9.4 22.6 9.4h33.8c8.8 0 16.4 3.1 22.6 9.4s9.4 13.8 9.4 22.6-3.1 16.4-9.4 22.6-13.8 9.4-22.6 9.4H126c-26.5 0-49.1-9.4-67.9-28.1S30 675.5 30 649V137c0-26.5 9.4-49.1 28.1-67.9S99.5 41 126 41h512c26.5 0 49.1 9.4 67.9 28.1S734 110.5 734 137zM354.9 745c-33.9 0-68.4-10.1-92.9-34.4-22.9-22.8-42.9-68-34.1-100.9 8.6-32.3 53.4-31.7 62.3 0 4.3 15.3.6 30.4 9 45.1 8.4 14.6 22.6 22.1 38.8 25 90.6 16.2 74.9-106.8 74.9-162V379c0-21.8-7.6-63.3 12-78.9 22.8-18.2 49.3.4 52 25.6 1.1 10.2 0 21.2 0 31.5v127.1c0 94.9 16.7 260.7-122 260.7zM621.4 746.9c-33.5 0-84.2-18.6-102.8-49.2-10.4-17.1-3.1-40.5 16.1-47.4 20-7.1 31.5 7.7 46.1 17.7 16.8 11.6 41.4 21 61.3 10.7 10.7-5.5 17.3-11.9 6.1-23.8-9.7-10.3-38-15.6-50.7-21.7-17.6-8.5-37.9-17.9-50-33.9-27.9-37-11.9-94.7 28-115.3 39.3-20.2 90.8-11.7 127.8 9.1 16.3 9.2 34.3 21.3 30.5 42.8-4 23.1-27.8 30.8-47.1 22.2-23.6-10.5-40.2-24.8-68.3-20.3-22.1 3.5-25.8 17-9.4 29.4 42.7 32 105.4 28.3 108.6 97.4 2.8 52.9-48.8 82.3-96.2 82.3z">:</path></symbol>
	<symbol id="code" viewBox="0 10 768 768"><path d="M223.9 618c-8.8 0-16.4-3.2-22.8-9.5l-159.9-192c-6.2-6.2-9.3-13.7-9.3-22.5 0-9 3.1-16.6 9.3-22.8l159.9-192c6.2-6.2 13.8-9.3 22.8-9.3 8.8 0 16.4 3.1 22.6 9.3s9.4 13.7 9.4 22.5c0 8.7-3.1 16.3-9.3 22.8L109.3 394l137.4 169.2c6.2 6.5 9.3 14.1 9.3 22.8 0 8.8-3.1 16.4-9.4 22.6s-13.8 9.4-22.7 9.4zM544 170c8.8 0 16.4 3.2 22.8 9.5l159.9 192c6.2 6.2 9.3 13.7 9.3 22.5 0 9-3.1 16.6-9.3 22.8l-159.9 192c-6.2 6.2-13.8 9.3-22.8 9.3-8.8 0-16.4-3.1-22.6-9.3s-9.4-13.7-9.4-22.5c0-8.7 3.1-16.3 9.3-22.8L658.7 394 521.3 224.8c-6.2-6.5-9.3-14.1-9.3-22.8 0-8.8 3.1-16.4 9.4-22.6s13.8-9.4 22.6-9.4zm-89.9 527c-8.6 2-16.7.6-24.2-4-7.5-4.7-12.2-11.3-14.2-19.9L289.9 129.4c-2-8.6-.6-16.7 4-24.2 4.7-7.5 11.3-12.2 19.9-14.2 8.6-2 16.7-.6 24.2 4s12.2 11.3 14.2 19.9L478 658.6c2 8.6.6 16.7-4 24.2S462.7 695 454.1 697z"></path></symbol>
	<symbol id="beta" viewBox="0 0 768 768"><path d="M160 192c0-35.3 12.5-65.5 37.5-90.5S252.7 64 288 64s65.5 12.5 90.5 37.5S416 156.7 416 192v66.5c26.8 3.8 52.1 12.3 75.8 25.4 23.7 13.1 44 29.3 61 48.8 17 19.4 30.5 41.9 40.4 67.5C603 425.7 608 456 608 480c0 176-199.4 218-199.4 218-17.3 3.7-28.3 20.7-24.6 38 3.7 17.3 20.7 28.3 38 24.6 0 0 250-29.2 250-280.6 0-36.1-8.3-80-24.8-116.9-16.5-36.9-39.2-68.6-68.1-95.1s-62-46.3-99.1-59.5V192c0-35.9-9.1-68.9-27.3-99-16.2-26.8-38.8-49.4-65.6-65.6C356.9 9.1 323.9 0 288 0c-35.9 0-68.9 9.1-99 27.3-26.8 16.2-49.4 38.8-65.6 65.6C105.1 123.1 96 156.1 96 192v384.1c0 17.7 14.3 32 32 32s32-14.3 32-32V192z"></path></symbol>
	<symbol id="note" viewBox="0 0 768 768"><path d="M128 32h512q39.75 0 67.875 28.125t28.125 67.875v352q0 39.75-28.125 67.875t-67.875 28.125h-256l-224 160v-160h-32q-39.75 0-67.875-28.125t-28.125-67.875v-352q0-39.75 28.125-67.875t67.875-28.125zM640 96h-512q-13.25 0-22.625 9.375t-9.375 22.625v352q0 13.25 9.375 22.625t22.625 9.375h96v99.75l139.5-99.75h276.5q13.25 0 22.625-9.375t9.375-22.625v-352q0-13.25-9.375-22.625t-22.625-9.375z"></path></symbol>
	<symbol id="compatiblity" viewBox="0 0 768 768"><path d="M384 32q9 0 13.5 0.25 46.5 1.75 90.375 15.375t81.125 36.625 68.375 55.375 52.75 70.375 33.75 82.625 12.125 91.375-12.125 91.375-33.75 82.625-52.75 70.375-68.375 55.375-81.125 36.625-90.375 15.375q-4.5 0.25-13.5 0.25t-13.5-0.25q-46.5-1.75-90.375-15.375t-81.125-36.625-68.375-55.375-52.75-70.375-33.75-82.625-12.125-91.375 12.125-91.375 33.75-82.625 52.75-70.375 68.375-55.375 81.125-36.625 90.375-15.375q4.5-0.25 13.5-0.25zM225.25 416h-127.5q10 89.25 68.75 156.75t144.5 90q-32.5-49.25-56.625-111.625t-29.125-135.125zM478.75 416h-189.5q2.5 32 10.375 64t17.625 56.625 22.5 48.625 23 39.5 21.25 29.75q11-14.25 21.25-29.875t23-39.625 22.5-48.625 17.625-56.5 10.375-63.875zM311 105.25q-85.75 22.5-144.5 90t-68.75 156.75h127.5q8.75-130.5 85.75-246.75zM670.25 416h-127.25q-9.25 130.75-86 246.75 85.75-22.5 144.5-90t68.75-156.75zM384 113.5q-11 14.25-21.125 29.875t-23 39.625-22.625 48.625-17.625 56.5-10.375 63.875h189.5q-2.5-32-10.375-64t-17.625-56.625-22.5-48.625-23-39.5-21.25-29.75zM457 105.25q76.75 116 86 246.75h127.25q-10-89.25-68.75-156.75t-144.5-90z"></path></symbol>
	<symbol id="tag" viewBox="0 0 768 768"><path d="M32 32h362l314 313.75q28 28 28 67.75 0 40-28 68L481.5 708q-28 28-67.75 28-40 0-68-28L32 394V32zm630.75 359L367.5 96H96v271.5l295 295.25q9.5 9.25 22.75 9.25t22.5-9.25l226.5-226.5Q672 427 672 413.75T662.75 391zM272 192q33.25 0 56.625 23.375T352 272t-23.375 56.625T272 352t-56.625-23.375T192 272t23.375-56.625T272 192zm0 64q-6.5 0-11.25 4.75T256 272t4.75 11.25T272 288t11.25-4.75T288 272t-4.75-11.25T272 256z"/></symbol>
	<symbol id="browserIE" viewBox="0 0 447.8 484.5"><path d="M141.5 194H312C307.5-.5 31 123.5 0 214.4 31-82 470.2-81.3 447 280.4H142.4c-1 116.3 159.7 123.6 263 66V447C109 596.8-79.6 258.8 173.6 119c-19.2 22.8-30.2 47.7-32 75z" fill="#009ad8"/></symbol>
	637 bytes - 22.79% saving
	<symbol id="browserFF" viewBox="0 0 397.8 396.9"><ellipse cx="199.5" cy="188.8" rx="190.4" ry="188.8" fill="#2898d5"/><path d="M394 157.2c-1.2 4.5-2 11.8-4.7 16 0-19.3-5-41.3-11.5-59.4a102.5 102.5 0 0 1 1.7 11.8c-7-18.2-16.4-38-28.2-53.5a35.4 35.4 0 0 1 4 12.8c-32.5-37.2-98-56.6-145.8-56 27.7 7.3 77 16.7 94 42.2-11.3-5.7-24.5-8.7-37-7 12.2 4.8 22.4 14.5 32.8 22.3 5 3.8 40.5 25.8 15.6 17 16.5 6 25.3 24.7 24.4 41.8a71.7 71.7 0 0 0-15.3-17.5c8.2 31.5 10 72.8-.2 104-1-6-2.5-17.3-8.2-21.8 4 32.2-2.6 52-24.3 75.2 2.8-10 5.4-21.4 4.3-31.8-37 55-103 73-153.3 22.3 26 2.2 49.2-5.8 69.8-21 17-12.4 19.8-31.2-9.6-29.4-16 1-27.3 14.4-44 12-13-2-31.6-15.4-37.3-27.5-11.8-25 22-21.7 37-14 1-8.2-7.8-28-6.4-32.6 3.7-12.5 27-14 31.4-26.8 5.4-15.8-9.2-5.7-22-10.4-39.5-14.2-22.2-47.3 4.4-65.2A90.3 90.3 0 0 0 128.7 74c-4.4 2.8-11.7 12-16.4 13-5.5 1.3-15.3-3-21.5-2.6-12.4.5-22 9-31-.2-7.3-7.4-6.2-29-7.5-38-24.4 24-19.7 50.6-31.7 78.4-7 16-25 31-19.6 50.6 2.7-3.5 7-8.6 11.6-9.4-13.3 7.4-9.4 58.6-7.8 70.5 4.7 33.5 20.5 65 42.5 90.4 37.7 43.6 91 69.5 148.8 70 55.5.7 107-24.2 143-66 36.6-42.4 70.3-116.5 55-173.5-2.7 10.2 5 19 0 0z" fill="#ec6335"/></symbol>
	<symbol  id="browserCHR" viewBox="0 0 396.9 396.8"><path d="M382.8 124.7a198.7 198.7 0 0 1-213 270l92-162.7-31.6-107.3h152.6z" fill="#fed234"/><path d="M382.8 124.7H166.3L131 229 42.7 75.7c60-76 168.5-99 254.8-49a197 197 0 0 1 85.3 98z" fill="#e54a45"/><path d="M262 234.7L169.6 395a198 198 0 0 1-70.4-24.6c-95-54.8-127.5-176-72.7-271a202.3 202.3 0 0 1 16-23.8l91.5 159h128z" fill="#51b84d"/><circle cx="197.7" cy="198.6" r="94.9" fill="#fff"/><circle cx="197.7" cy="198.6" r="81.7" fill="#4894c6"/></symbol>
	<symbol id="browserOP" viewBox="0 0 396.9 396.9"><path d="M198.4 0C88.8 0 0 89 0 198.4 0 305 83.8 391.7 189 396.6l9.4.3a197.7 197.7 0 0 0 132.3-50.6 143 143 0 0 1-79.5 24.3c-47.3 0-89.6-23.5-118-60.4C111.2 284.3 97 246 96 203v-9.3c1-43 15.2-81.2 37-107 28.6-37 71-60.5 118.2-60.5a143 143 0 0 1 79.5 24.3A197.7 197.7 0 0 0 199.2 0h-.8z" fill="#e42833"/><path d="M133 86.6C151.4 65 175 52.2 200.6 52.2c57.8 0 104.7 65.5 104.7 146.2 0 80.8-47 146.3-104.7 146.3-25.7 0-49.2-13-67.4-34.4 28.6 37 71 60.4 118 60.4a143.4 143.4 0 0 0 79.7-24.3 198 198 0 0 0 66-148 198 198 0 0 0-66-148 143 143 0 0 0-79.5-24.2c-47.3 0-89.6 23.5-118 60.4" fill="#9e1e22"/></symbol>
	<symbol id="browserIOS" viewBox="0 0 396.85 396.85"><circle cx="198.43" cy="198.43" r="198.43" fill="#ededed"/><circle cx="198.43" cy="198.43" r="170.08" fill="#79bedd"/><path d="M244.1,244.12l-4.67-20.88a47.63,47.63,0,0,0,5.52-13.34l32.23-11.46L244.95,187a47.63,47.63,0,0,0-5.52-13.34l-16.2-16.2a47.63,47.63,0,0,0-13.34-5.52l-11.46-32.23L187,151.92a47.63,47.63,0,0,0-13.34,5.52l-19.88-4.67,3.67,20.88A47.63,47.63,0,0,0,151.9,187l-32.23,11.46,32.23,11.46a47.63,47.63,0,0,0,5.52,13.34l16.2,16.2A47.63,47.63,0,0,0,187,245l11.46,32.23L209.89,245a47.63,47.63,0,0,0,13.34-5.52Z" transform="translate(0 -0.02)" fill="#fff"/><circle cx="198.43" cy="198.43" r="41" fill="#79bedd"/><polygon points="186.21 186.21 282.04 114.81 210.64 210.64 186.21 186.21" fill="#ea3f49"/><polygon points="186.21 186.21 114.81 282.04 210.64 210.64 186.21 186.21" fill="#dedddd"/></symbol>
	<symbol id="browserAND" viewBox="0 0 396.9 396.9"><path d="M295.7 70.2L327 8.4a5.8 5.8 0 0 0-10.3-5.2l-31.4 62a209.8 209.8 0 0 0-87-18.7 209.8 209.8 0 0 0-86.7 18.7L80 3.2A5.8 5.8 0 0 0 70 8.4L101 70.2C42.8 101 2.5 158.2 0 224h397C394.3 158 354 101 295.6 70zm-186.7 86a20 20 0 1 1 20-20 20 20 0 0 1-20 20.2zm178.8.2a20 20 0 1 1 20-20 20 20 0 0 1-20 20zM0 247h397v150H0z" fill="#a4c93a"/></symbol>
</svg>
